<?xml version="1.0" encoding="utf-8"?>
<?xml-stylesheet type="text/xsl" href="rss1.xsl"?>
<rss version="2.0" xmlns:atom="http://www.w3.org/2005/Atom" xmlns:content="http://purl.org/rss/1.0/modules/content/" xmlns:dc="http://purl.org/dc/elements/1.1/" xmlns:media="http://search.yahoo.com/mrss/">
<channel>
 <title>Getty</title>
 <link>http://www.gettyimg.com/</link>
 <atom:link href="http://www.gettyimg.com/" rel="self" type="application/rss+xml" />

 
                <item>
                <title><![CDATA[【Requests】[REQ AUD] - Hepburn - Hepburn (1999) [FLAC]]]></title>
                <link><![CDATA[https://sharemania.us/threads/hepburn-hepburn-1999-flac.227490/]]></link>
                <description><![CDATA[<article>
<blockquote class="messageText SelectQuoteContainer ugc baseHtml">
Hi.<br>
<br>
I'm looking for Hepburn's album - Hepburn (1999) as listed here:<br>
<a href="https://www.discogs.com/release/2562649-Hepburn-Hepburn" target="_blank" class="externalLink" rel="nofollow">https://www.discogs.com/release/2562649-Hepburn-Hepburn</a><br>
<br>
In FLAC, if possible,<br>
<br>
Thanks.
<div class="messageTextEndMarker">&nbsp;</div>
</blockquote>
</article>]]></description>
                <author><![CDATA[OrangeGround35]]></author>
                </item>

                
                <item>
                <title><![CDATA[【PRORES HD】Lena - Traffic Lights |ProRes 1080|]]></title>
                <link><![CDATA[https://sharemania.us/threads/lena-traffic-lights-prores-1080.227492/]]></link>
                <description><![CDATA[<article>
<blockquote class="messageText SelectQuoteContainer ugc baseHtml">
<div style="text-align: center"><img src="https://i.imgur.com/AiiNHeG.gif" class="bbCodeImage LbImage" alt="[​IMG]" data-url="https://i.imgur.com/AiiNHeG.gif" style=""><br>
<br>
​</div>
<div class="ToggleTriggerAnchor bbCodeSpoilerContainer">
<button type="button" class="button bbCodeSpoilerButton ToggleTrigger Tooltip JsOnly" data-target="> .SpoilerTarget"><span>Spoiler: <span class="SpoilerTitle">ProRes</span></span></button>
<div class="SpoilerTarget bbCodeSpoilerText">
<div class="bbCodeBlock bbCodeCode">
<div class="type">Code:</div>
<pre>Format                                   : MPEG-4
Format profile                           : QuickTime
Codec ID                                 : qt   2005.03 (qt  )
File size                                : 3.58 GiB
Duration                                 : 2 min 50 s
Overall bit rate mode                    : Variable
Overall bit rate                         : 180 Mb/s
Encoded date                             : UTC 2015-04-28 11:19:39
Tagged date                              : UTC 2015-04-28 11:19:39

Video
ID                                       : 1
Format                                   : ProRes
Format version                           : Version 0
Format profile                           : 422 HQ
Codec ID                                 : apch
Duration                                 : 2 min 50 s
Bit rate mode                            : Variable
Bit rate                                 : 178 Mb/s
Width                                    : 1 920 pixels
Height                                   : 1 080 pixels
Display aspect ratio                     : 16:9
Frame rate mode                          : Constant
Frame rate                               : 25.000 FPS
Color space                              : YUV
Chroma subsampling                       : 4:2:2
Scan type                                : Progressive
Bits/(Pixel*Frame)                       : 3.440
Stream size                              : 3.55 GiB (99%)
Writing library                          : aut0
Language                                 : English
Encoded date                             : UTC 2015-04-28 11:19:39
Tagged date                              : UTC 2015-04-28 11:19:39
Color primaries                          : BT.709
Transfer characteristics                 : BT.709
Matrix coefficients                      : BT.709

Audio
ID                                       : 3
Format                                   : PCM
Format settings                          : Big / Signed
Codec ID                                 : lpcm
Duration                                 : 2 min 50 s
Bit rate mode                            : Constant
Bit rate                                 : 1 536 kb/s
Channel(s)                               : 2 channels
Channel layout                           : L R
Sampling rate                            : 48.0 kHz
Bit depth                                : 16 bits
Stream size                              : 31.3 MiB (1%)
Language                                 : English
Encoded date                             : UTC 2015-04-28 11:19:39
Tagged date                              : UTC 2015-04-28 11:19:39

Other
ID                                       : 2
Type                                     : Time code
Format                                   : QuickTime TC
Duration                                 : 2 min 50 s
Frame rate                               : 25.000 FPS
Time code of first frame                 : 00:59:59:01
Time code, striped                       : Yes
Title                                    : untitled
Language                                 : English
Default                                  : No
Encoded date                             : UTC 2015-04-28 11:19:39
Tagged date                              : UTC 2015-04-28 11:19:39</pre>
</div><div style="text-align: center">​</div></div>
</div><div style="text-align: center"><br>
<br>
<br>
<div class="bbCodeBlock bbCodeVfcHH HiddenContent">
<div class="attribution type">Hidden Content:</div>
<blockquote>You must reply before you can see the hidden data contained here.</blockquote>
</div></div>
<div class="messageTextEndMarker">&nbsp;</div>
</blockquote>
</article>]]></description>
                <author><![CDATA[fstambuk]]></author>
                </item>

                </channel></rss>